<svg width="665" height="929" viewBox="0 0 665 929" fill="none" xmlns="http://www.w3.org/2000/svg">
<path d="M625 0C647.091 0 665 17.9086 665 40V258.352C665 268.961 660.786 279.135 653.284 286.637L211.716 728.206C204.214 735.708 200 745.882 200 756.49V889C200 911.091 182.091 929 160 929H40C17.9086 929 0 911.091 0 889V673.648C0 663.039 4.21426 652.865 11.7157 645.363L453.284 203.794C460.786 196.292 465 186.118 465 175.51V40C465 17.9086 482.909 0 505 0H625Z" fill="white"/>
<rect width="300" height="200" rx="40" fill="white"/>
<rect x="365" y="729" width="300" height="200" rx="40" fill="white"/>
</svg>
